<svg xmlns="http://www.w3.org/2000/svg" version="1.0" width="5432.000000" height="1871.000000" preserveAspectRatio="xMidYMid meet" style=""><rect id="backgroundrect" width="100%" height="100%" x="0" y="0" fill="none" stroke="none"/>


<g class="currentLayer" style=""><title>Layer 1</title><g transform="translate(0,1871) scale(0.10000000149011612,-0.10000000149011612) " fill="#3ac0fd" stroke="none" id="svg_1" class="selected" fill-opacity="1">
<path d="M0 18155 l0 -545 4265 0 4265 0 0 545 0 545 -4265 0 -4265 0 0 -545z" id="svg_2" fill="#3ac0fd" fill-opacity="1"/>
<path d="M14740 17630 l0 -980 -445 0 -445 0 0 -630 0 -630 445 0 445 0 0 -2400 0 -2400 660 0 660 0 0 2400 0 2400 450 0 450 0 0 630 0 630 -450 0 -450 0 0 980 0 980 -660 0 -660 0 0 -980z" id="svg_3" fill="#3ac0fd" fill-opacity="1"/>
<path d="M35420 17235 c0 -756 -2 -1375 -4 -1375 -2 0 -66 25 -142 56 -567 228 -1079 337 -1504 320 -726 -30 -1319 -269 -1846 -744 -505 -455 -823 -1036 -918 -1677 -109 -732 36 -1431 419 -2015 158 -241 430 -541 655 -720 462 -369 977 -566 1590 -611 438 -31 937 47 1525 238 110 36 206 68 213 70 9 4 12 -18 12 -91 l0 -96 660 0 660 0 0 4010 0 4010 -660 0 -660 0 0 -1375z m-1313 -2296 c163 -22 377 -90 503 -161 140 -79 240 -157 381 -298 210 -210 322 -385 398 -624 l32 -99 -3 -426 -3 -426 -29 -80 c-88 -246 -254 -485 -470 -676 -229 -204 -468 -322 -761 -376 -127 -23 -416 -23 -550 1 -204 36 -407 118 -581 234 -358 240 -595 587 -686 1006 -20 88 -22 131 -22 336 0 207 2 247 22 340 47 214 134 415 255 587 77 110 286 319 394 396 198 140 454 241 688 270 68 9 359 6 432 -4z" id="svg_4" fill="#3ac0fd" fill-opacity="1"/>
<path d="M44960 17630 l0 -980 -445 0 -445 0 0 -630 0 -630 445 0 445 0 0 -2400 0 -2400 660 0 660 0 0 2400 0 2400 450 0 450 0 0 630 0 630 -450 0 -450 0 0 980 0 980 -660 0 -660 0 0 -980z" id="svg_5" fill="#3ac0fd" fill-opacity="1"/>
<path d="M2167 16803 c-4 -3 -7 -420 -7 -925 l0 -918 -1080 0 -1080 0 0 -1955 0 -1955 1080 0 1080 0 0 -3615 0 -3615 2100 0 2100 0 0 6495 0 6495 -2093 0 c-1152 0 -2097 -3 -2100 -7z" id="svg_6" fill="#3ac0fd" fill-opacity="1"/>
<path d="M20290 16233 c-399 -27 -744 -114 -1067 -268 -644 -307 -1193 -884 -1457 -1530 -298 -730 -266 -1647 82 -2340 227 -455 615 -887 1057 -1178 148 -97 412 -230 569 -285 428 -152 912 -204 1366 -146 321 41 678 127 1038 252 l142 49 0 -98 0 -99 655 0 655 0 0 2625 0 2625 -650 0 -649 0 -158 66 c-194 81 -554 202 -723 243 -304 73 -599 102 -860 84z m540 -1316 c285 -68 525 -205 749 -428 212 -213 344 -425 415 -673 26 -88 26 -91 26 -466 0 -370 0 -379 -24 -461 -73 -250 -201 -455 -421 -674 -194 -193 -383 -313 -615 -389 -332 -108 -725 -97 -1052 29 -436 169 -801 558 -937 1000 -55 182 -66 259 -66 495 0 236 10 312 66 495 154 503 603 931 1115 1061 151 38 205 43 429 39 182 -3 224 -6 315 -28z" id="svg_7" fill="#3ac0fd" fill-opacity="1"/>
<path d="M40275 16230 c-247 -20 -524 -78 -745 -155 -514 -179 -1014 -553 -1365 -1020 -224 -298 -382 -625 -469 -973 -66 -264 -80 -388 -81 -722 0 -311 6 -386 52 -605 89 -433 276 -826 564 -1185 102 -128 322 -350 445 -452 436 -359 902 -560 1469 -634 178 -24 553 -24 727 -1 316 42 619 114 969 230 l219 72 0 -97 0 -98 660 0 660 0 0 2625 0 2625 -654 0 -653 0 -139 58 c-381 161 -731 264 -1059 313 -152 23 -440 32 -600 19z m565 -1305 c264 -58 488 -172 697 -355 237 -206 408 -457 492 -723 l31 -97 0 -400 0 -399 -35 -107 c-71 -218 -186 -401 -375 -597 -236 -246 -500 -399 -795 -462 -136 -29 -325 -40 -468 -27 -382 35 -675 168 -949 431 -237 227 -385 482 -454 781 -71 313 -49 678 60 960 80 207 180 360 346 533 242 252 526 409 847 467 91 17 141 19 318 16 146 -3 233 -9 285 -21z" id="svg_8" fill="#3ac0fd" fill-opacity="1"/>
<path d="M50453 16229 c-682 -52 -1286 -325 -1784 -806 -502 -486 -783 -1042 -865 -1715 -20 -161 -23 -526 -5 -678 65 -553 256 -1016 601 -1450 107 -135 365 -393 500 -500 223 -177 533 -353 784 -445 403 -148 899 -205 1341 -154 315 36 702 129 1073 257 l142 49 0 -98 0 -99 655 0 655 0 0 2625 0 2625 -650 0 -650 0 -123 52 c-653 275 -1160 377 -1674 337z m597 -1312 c321 -76 599 -248 833 -515 153 -175 246 -331 314 -528 l38 -109 3 -394 c3 -394 3 -395 -22 -480 -54 -190 -137 -346 -274 -517 -260 -325 -595 -533 -967 -600 -135 -24 -421 -25 -552 0 -331 60 -598 201 -838 441 -311 311 -465 687 -465 1135 0 439 150 812 448 1117 233 239 499 390 798 452 144 30 140 29 369 26 182 -3 224 -6 315 -28z" id="svg_9" fill="#3ac0fd" fill-opacity="1"/>
<path d="M26967 15959 c-322 -26 -731 -118 -1137 -254 -91 -30 -166 -55 -167 -55 -2 0 -3 43 -3 95 l0 95 -655 0 -655 0 0 -4010 0 -4010 655 0 655 0 0 1375 c0 756 2 1375 5 1375 3 0 79 -29 168 -64 567 -225 1071 -331 1482 -311 667 31 1220 233 1705 623 122 98 374 350 472 472 315 391 510 839 589 1350 31 196 34 657 6 845 -78 523 -266 960 -587 1365 -98 124 -379 408 -500 504 -182 145 -413 286 -625 379 -412 183 -930 266 -1408 226z m445 -1294 c339 -45 616 -180 872 -425 266 -256 421 -553 477 -915 16 -103 16 -387 0 -490 -52 -341 -192 -623 -430 -869 -238 -245 -493 -391 -799 -457 -140 -30 -418 -37 -569 -15 -353 52 -661 220 -923 504 -161 175 -269 350 -337 547 l-38 110 -3 408 c-3 391 -2 411 18 484 123 437 531 870 977 1038 223 84 501 114 755 80z" id="svg_10" fill="#3ac0fd" fill-opacity="1"/>
<path d="M7110 13015 l0 -2044 43 -11 c843 -217 1562 -712 2073 -1426 335 -470 566 -1061 634 -1624 6 -52 13 -110 16 -127 l5 -33 2014 0 c1108 0 2016 4 2019 8 6 10 -10 257 -29 452 -251 2500 -1717 4719 -3927 5944 -702 388 -1502 676 -2288 820 -110 20 -365 59 -527 80 l-33 5 0 -2044z" id="svg_11" fill="#3ac0fd" fill-opacity="1"/>
<path d="M45050 9254 c-2568 -46 -4906 -247 -7175 -619 -1459 -239 -3096 -599 -4090 -900 -1199 -364 -4392 -1563 -7860 -2952 -983 -394 -1306 -518 -1665 -641 -1526 -523 -2892 -806 -4370 -904 -305 -20 -1322 -17 -1620 5 -1559 117 -2916 472 -4170 1093 -896 443 -1633 954 -2243 1553 -307 302 -485 519 -666 811 l-22 35 7 -30 c13 -57 136 -390 201 -545 709 -1675 2160 -3000 4158 -3799 1296 -519 2749 -779 4220 -758 1555 23 3649 379 6305 1073 731 191 1287 344 2810 772 2370 667 3362 927 4535 1186 1167 258 2062 408 3165 530 2343 261 4781 391 6662 357 1274 -24 2493 -104 3958 -262 l385 -42 3360 1738 c1848 956 3364 1741 3368 1745 18 16 -1503 187 -2403 269 -1559 144 -2959 227 -4540 271 -356 10 -1981 20 -2310 14z" id="svg_12" fill="#3ac0fd" fill-opacity="1"/>
<path d="M32695 8874 c-2975 -1271 -5912 -2268 -8467 -2874 -4430 -1050 -7966 -1065 -10358 -43 -597 255 -1191 628 -1603 1004 -50 46 -87 77 -82 69 20 -34 287 -383 374 -490 975 -1191 2197 -1959 3736 -2348 1003 -254 2138 -337 3365 -246 3088 227 6842 1525 11210 3876 730 393 2001 1111 1960 1108 -3 -1 -63 -26 -135 -56z" id="svg_13" fill="#3ac0fd" fill-opacity="1"/>
<path d="M40520 4434 c-2498 -41 -4833 -251 -7175 -645 -2564 -431 -5069 -1084 -7173 -1870 -567 -212 -1265 -501 -1167 -484 17 3 179 27 360 54 2776 416 5423 668 8000 761 1339 48 2889 52 4120 10 1217 -42 2512 -130 3543 -239 l173 -19 2158 1117 c1188 614 2154 1119 2148 1122 -7 4 -48 9 -92 13 -44 3 -219 17 -390 31 -801 64 -1641 109 -2540 135 -344 10 -1643 19 -1965 14z" id="svg_14" fill="#3ac0fd" fill-opacity="1"/>
<path d="M33665 1553 c-1331 -27 -2726 -129 -4073 -298 -355 -45 -953 -127 -949 -131 1 -1 110 -7 242 -13 2741 -129 5770 -510 8218 -1032 180 -39 334 -69 341 -67 31 8 2334 1204 2328 1209 -4 4 -218 30 -477 58 -1442 157 -2612 238 -3915 271 -343 9 -1356 11 -1715 3z" id="svg_15" fill="#3ac0fd" fill-opacity="1"/>
</g></g></svg>